<?xml version="1.0" encoding="utf-8"?>
<!-- Svg Vector Icons : http://www.onlinewebfonts.com/icon -->
<!DOCTYPE svg PUBLIC "-//W3C//DTD SVG 1.1//EN" "http://www.w3.org/Graphics/SVG/1.1/DTD/svg11.dtd">
<svg version="1.1" xmlns="http://www.w3.org/2000/svg" xmlns:xlink="http://www.w3.org/1999/xlink" x="0px" y="0px" viewBox="0 0 1000 1000" enable-background="new 0 0 1000 1000" xml:space="preserve">
<metadata> Svg Vector Icons : http://www.onlinewebfonts.com/icon </metadata>
<g><g transform="translate(0.000000,511.000000) scale(0.100000,-0.100000)"><path d="M4620.9,4961C2441,4779.9,652.1,3215.6,205.5,1103.2C26.8,260.7,75.1-586.7,350.3-1409.9c234.2-709.8,589-1291.5,1117.7-1842c1004.3-1047.7,2428.6-1595.7,3874.7-1491.9C7653-4577.2,9521.6-2856,9862-579.5c50.7,354.9,50.7,1021.2,0,1376.1c-241.4,1600.6-1252.9,2979-2706.2,3681.5C6368.7,4859.6,5465.8,5031,4620.9,4961z M7416.5,3679.1c21.7-29,41-89.3,41-135.2c0-79.7-111-198-1839.6-1945.8C1868.8-2199.3,1859.2-2209,1767.4-2209c-55.5,0-101.4,19.3-140,60.4c-108.6,106.2-84.5,159.4,198,453.8c632.5,654.2,5347.3,5422.1,5373.8,5434.2C7254.7,3763.6,7373,3729.8,7416.5,3679.1z M8278.3,2793.1c91.7-115.9,70-154.5-282.5-519c-1052.5-1086.4-5258-5328-5294.2-5340c-62.8-19.3-159.3,9.7-205.2,60.4c-43.4,48.3-55.5,164.2-21.7,222.1c45.9,77.2,5523.5,5610.4,5579,5634.6C8138.3,2887.2,8222.8,2865.5,8278.3,2793.1z"/></g></g>
</svg>